<?xml version="1.0" standalone="no"?>
<svg xmlns:xlink="http://www.w3.org/1999/xlink" id="wave" style="transform:rotate(0deg); transition: 0.3s" viewBox="0 0 1440 210" version="1.1" xmlns="http://www.w3.org/2000/svg"><defs><linearGradient id="sw-gradient-0" x1="0" x2="0" y1="1" y2="0"><stop stop-color="rgba(0, 153, 255, 1)" offset="0%"/><stop stop-color="rgba(191, 219, 247, 1)" offset="100%"/></linearGradient></defs><path style="transform:translate(0, 0px); opacity:1" fill="url(#sw-gradient-0)" d="M0,84L40,101.5C80,119,160,154,240,168C320,182,400,175,480,168C560,161,640,154,720,133C800,112,880,77,960,84C1040,91,1120,140,1200,136.5C1280,133,1360,77,1440,45.5C1520,14,1600,7,1680,14C1760,21,1840,42,1920,42C2000,42,2080,21,2160,28C2240,35,2320,70,2400,73.5C2480,77,2560,49,2640,59.5C2720,70,2800,119,2880,126C2960,133,3040,98,3120,73.5C3200,49,3280,35,3360,45.5C3440,56,3520,91,3600,101.5C3680,112,3760,98,3840,94.5C3920,91,4000,98,4080,112C4160,126,4240,147,4320,129.5C4400,112,4480,56,4560,42C4640,28,4720,56,4800,59.5C4880,63,4960,42,5040,56C5120,70,5200,119,5280,119C5360,119,5440,70,5520,59.5C5600,49,5680,77,5720,91L5760,105L5760,210L5720,210C5680,210,5600,210,5520,210C5440,210,5360,210,5280,210C5200,210,5120,210,5040,210C4960,210,4880,210,4800,210C4720,210,4640,210,4560,210C4480,210,4400,210,4320,210C4240,210,4160,210,4080,210C4000,210,3920,210,3840,210C3760,210,3680,210,3600,210C3520,210,3440,210,3360,210C3280,210,3200,210,3120,210C3040,210,2960,210,2880,210C2800,210,2720,210,2640,210C2560,210,2480,210,2400,210C2320,210,2240,210,2160,210C2080,210,2000,210,1920,210C1840,210,1760,210,1680,210C1600,210,1520,210,1440,210C1360,210,1280,210,1200,210C1120,210,1040,210,960,210C880,210,800,210,720,210C640,210,560,210,480,210C400,210,320,210,240,210C160,210,80,210,40,210L0,210Z"/></svg>